<?xml version="1.0" standalone="no"?><!DOCTYPE svg PUBLIC "-//W3C//DTD SVG 1.1//EN" "http://www.w3.org/Graphics/SVG/1.1/DTD/svg11.dtd"><svg height="480" node-id="1" sillyvg="true" template-height="480" template-width="480" version="1.1" viewBox="0 0 480 480" width="480" xmlns="http://www.w3.org/2000/svg" xmlns:xlink="http://www.w3.org/1999/xlink"><defs node-id="51"><linearGradient gradientUnits="objectBoundingBox" id="a" node-id="3" spreadMethod="pad" x1="0.5" x2="0.564" y1="1" y2="0"><stop offset="0" stop-color="#e0e5ef" stop-opacity="0"></stop><stop offset="1" stop-color="#e0e5ef"></stop></linearGradient><linearGradient gradientUnits="objectBoundingBox" id="b" node-id="6" spreadMethod="pad" x1="0.5" x2="0.5" y1="0" y2="1"><stop offset="0" stop-color="#d5d5d5"></stop><stop offset="1" stop-color="#6b6b6b" stop-opacity="0.059"></stop></linearGradient></defs><g node-id="241"><path d="M 424.00 240.00 C 424.00 341.62 341.62 424.00 240.00 424.00 C 138.38 424.00 56.00 341.62 56.00 240.00 C 56.00 138.38 138.38 56.00 240.00 56.00 C 341.62 56.00 424.00 138.38 424.00 240.00 Z" fill="#f3f3fa" fill-rule="nonzero" group-id="1" node-id="70" stroke="none" target-height="368" target-width="368" target-x="56" target-y="56"></path></g><g node-id="242"><path d="M 207.00 421.24 L 207.00 258.00 L 271.00 258.00 L 271.00 421.24 C 249.83 424.92 228.17 424.92 207.00 421.24 Z M 95.00 354.93 L 95.00 162.00 L 183.00 162.00 L 183.00 415.37 C 148.35 404.35 117.73 383.32 95.00 354.93 Z M 303.00 186.00 L 399.00 186.00 L 399.00 331.43 C 377.50 368.91 343.52 397.65 303.00 412.63 Z" fill="url(#a)" fill-rule="nonzero" group-id="2" node-id="75" stroke="none" target-height="262.92" target-width="304" target-x="95" target-y="161.99902"></path></g><g node-id="243"><g node-id="257"><path d="M 161.05 204.23 L 287.93 145.07 C 291.94 143.20 296.70 144.93 298.56 148.94 L 376.32 315.70 C 378.19 319.70 376.46 324.46 372.45 326.33 L 245.57 385.50 C 241.57 387.36 236.81 385.63 234.94 381.63 L 157.18 214.87 C 155.31 210.86 157.04 206.10 161.05 204.23 Z" fill="#78818e" fill-rule="nonzero" group-id="3,17" node-id="82" stroke="none" target-height="244.16263" target-width="222.88026" target-x="155.31108" target-y="143.20041"></path></g><g node-id="258"><path d="M 161.05 204.23 L 284.31 146.76 C 288.31 144.89 293.07 146.62 294.94 150.63 L 372.70 317.39 C 374.57 321.39 372.83 326.15 368.83 328.02 L 245.57 385.50 C 241.57 387.36 236.81 385.63 234.94 381.63 L 157.18 214.87 C 155.31 210.86 157.04 206.10 161.05 204.23 Z" fill="#a1a7af" fill-rule="nonzero" group-id="3,18" node-id="87" stroke="none" target-height="242.47215" target-width="219.25502" target-x="155.31108" target-y="144.89088"></path></g><g node-id="259"><path d="M 168.05 209.79 L 284.06 155.70 C 286.06 154.77 288.44 155.63 289.38 157.63 L 363.76 317.14 C 364.69 319.15 363.83 321.53 361.82 322.46 L 245.82 376.55 C 243.81 377.49 241.43 376.62 240.50 374.62 L 166.12 215.11 C 165.19 213.11 166.05 210.73 168.05 209.79 Z" fill="#dae8e6" fill-rule="nonzero" group-id="3,19" node-id="92" stroke="none" target-height="222.72302" target-width="199.50595" target-x="165.18564" target-y="154.76544"></path></g><g node-id="260"><path d="M 168.05 209.79 L 284.06 155.70 C 286.11 154.78 288.51 155.70 289.43 157.75 C 356.86 318.92 349.00 322.75 349.00 322.75 C 349.00 322.75 310.85 341.29 274.20 353.40 C 250.71 361.01 226.72 366.96 202.40 371.20 C 202.40 371.20 213.58 354.76 212.99 334.55 C 212.39 314.34 199.31 286.28 199.31 286.28 L 166.17 215.22 C 165.19 213.21 166.04 210.77 168.05 209.79 Z" fill="url(#b)" fill-rule="nonzero" group-id="3,20" node-id="97" stroke="none" target-height="216.4183" target-width="191.66853" target-x="165.19331" target-y="154.78299"></path></g><g node-id="261"><path d="M 168.05 209.79 L 284.06 155.70 C 286.06 154.77 288.44 155.63 289.38 157.63 C 354.54 313.95 351.68 317.26 351.68 317.26 C 351.68 317.26 307.87 336.31 271.68 346.84 C 248.01 353.56 223.96 358.87 199.66 362.77 C 207.36 353.94 211.49 342.58 211.27 330.87 C 210.92 311.18 198.24 283.99 198.24 283.99 L 166.12 215.11 C 165.19 213.11 166.05 210.73 168.05 209.79 Z" fill="#ffffff" fill-rule="nonzero" group-id="3,21" node-id="102" stroke="none" target-height="208.0018" target-width="189.35815" target-x="165.18564" target-y="154.76544"></path></g><g node-id="262"><path d="M 194.27 232.88 L 226.89 217.67 C 227.89 217.20 229.08 217.63 229.55 218.63 L 244.77 251.26 C 245.23 252.26 244.80 253.45 243.80 253.92 L 211.17 269.13 C 210.17 269.60 208.98 269.17 208.51 268.16 L 193.30 235.54 C 192.83 234.54 193.27 233.35 194.27 232.88 Z" fill="#ebedf5" fill-rule="nonzero" group-id="3,22" node-id="107" stroke="none" target-height="52.400192" target-width="52.400208" target-x="192.83191" target-y="217.19832"></path></g><g node-id="263"><path d="M 245.02 209.21 L 284.90 190.62 C 285.90 190.15 287.09 190.58 287.55 191.58 L 292.63 202.46 C 293.09 203.46 292.66 204.65 291.66 205.12 L 251.78 223.71 C 250.78 224.18 249.59 223.75 249.12 222.75 L 244.05 211.87 C 243.59 210.87 244.02 209.68 245.02 209.21 Z" fill="#ebedf5" fill-rule="nonzero" group-id="3,23" node-id="112" stroke="none" target-height="34.029755" target-width="49.507813" target-x="243.58514" target-y="190.15076"></path></g><g node-id="264"><path d="M 255.16 230.96 L 295.04 212.37 C 296.04 211.90 297.23 212.34 297.70 213.34 L 302.77 224.21 C 303.24 225.21 302.80 226.40 301.80 226.87 L 261.92 245.47 C 260.92 245.93 259.73 245.50 259.27 244.50 L 254.19 233.62 C 253.73 232.62 254.16 231.43 255.16 230.96 Z" fill="#ebedf5" fill-rule="nonzero" group-id="3,24" node-id="117" stroke="none" target-height="34.029755" target-width="49.507843" target-x="253.728" target-y="211.90213"></path></g><g node-id="265"><path d="M 216.12 284.48 C 216.12 284.48 240.53 275.30 264.09 264.31 C 287.66 253.33 310.38 240.53 310.38 240.53 L 314.54 251.82 C 314.54 251.82 296.13 262.62 272.79 273.50 C 249.45 284.38 220.29 295.78 220.29 295.78 Z" fill="#ebedf5" fill-rule="nonzero" group-id="3,25" node-id="122" stroke="none" target-height="55.250626" target-width="98.42111" target-x="216.12012" target-y="240.52556"></path></g><g node-id="266"><path d="M 224.04 301.47 C 224.04 301.47 237.76 297.76 261.46 287.06 C 285.15 276.35 317.92 259.07 317.92 259.07 L 322.03 272.61 C 322.03 272.61 290.80 289.65 267.69 300.43 C 244.58 311.20 227.38 314.54 227.38 314.54 Z" fill="#ebedf5" fill-rule="nonzero" group-id="3,26" node-id="127" stroke="none" target-height="55.461914" target-width="97.98204" target-x="224.0442" target-y="259.07434"></path></g><path d="M 229.85 322.21 C 241.31 319.00 252.53 315.00 263.44 310.23 C 281.77 302.23 324.50 280.28 324.50 280.28 L 328.97 296.96 C 328.97 296.96 295.31 315.68 270.90 326.24 C 246.49 336.79 232.54 338.61 232.54 338.61 Z" fill="#ebedf5" fill-rule="nonzero" group-id="3,27" node-id="132" stroke="none" target-height="58.331085" target-width="99.11369" target-x="229.85277" target-y="280.28098"></path></g><g node-id="244"><g node-id="268"><path d="M 265.18 125.83 L 267.11 126.35 C 268.18 126.63 268.81 127.73 268.53 128.80 L 261.27 155.84 C 260.99 156.91 259.89 157.54 258.82 157.26 L 256.89 156.74 C 255.82 156.45 255.19 155.36 255.48 154.29 L 262.73 127.24 C 263.02 126.17 264.11 125.54 265.18 125.83 Z" fill="#b5b9be" fill-rule="nonzero" group-id="4,28" node-id="140" stroke="none" target-height="32.002167" target-width="13.620178" target-x="255.19193" target-y="125.541916"></path></g><path d="M 264.21 125.57 L 266.15 126.09 C 267.21 126.37 267.85 127.47 267.56 128.54 L 260.31 155.58 C 260.02 156.65 258.93 157.29 257.86 157.00 L 255.93 156.48 C 254.86 156.19 254.23 155.10 254.51 154.03 L 261.76 126.98 C 262.05 125.92 263.15 125.28 264.21 125.57 Z" fill="#dddfe6" fill-rule="nonzero" group-id="4" node-id="143" stroke="none" target-height="32.002167" target-width="13.620178" target-x="254.22592" target-y="125.28291"></path></g><g node-id="245"><path d="M 265.00 139.95 C 265.00 140.78 264.33 141.45 263.50 141.45 C 262.67 141.45 262.00 140.78 262.00 139.95 C 262.00 139.12 262.67 138.45 263.50 138.45 C 264.33 138.45 265.00 139.12 265.00 139.95 Z" fill="#909aa9" fill-rule="nonzero" group-id="5" node-id="148" stroke="none" target-height="3" target-width="3" target-x="262" target-y="138.45203"></path></g><g node-id="246"><path d="M 89.80 136.38 C 278.75 163.12 379.25 120.38 379.25 120.38" fill="none" group-id="6" node-id="153" stroke="#909aa9" stroke-linecap="round" stroke-width="2" target-height="42.75" target-width="289.44995" target-x="89.80029" target-y="120.375"></path></g><g node-id="247"><g node-id="269"><path d="M 257.00 122.41 L 261.00 122.41 C 262.10 122.41 263.00 123.30 263.00 124.41 L 263.00 160.41 C 263.00 161.51 262.10 162.41 261.00 162.41 L 257.00 162.41 C 255.90 162.41 255.00 161.51 255.00 160.41 L 255.00 124.41 C 255.00 123.30 255.90 122.41 257.00 122.41 Z" fill="#b5b9be" fill-rule="nonzero" group-id="7,29" node-id="160" stroke="none" target-height="40" target-width="8" target-x="255" target-y="122.405"></path></g><path d="M 256.00 122.41 L 260.00 122.41 C 261.10 122.41 262.00 123.30 262.00 124.41 L 262.00 160.41 C 262.00 161.51 261.10 162.41 260.00 162.41 L 256.00 162.41 C 254.90 162.41 254.00 161.51 254.00 160.41 L 254.00 124.41 C 254.00 123.30 254.90 122.41 256.00 122.41 Z" fill="#cdd3df" fill-rule="nonzero" group-id="7" node-id="163" stroke="none" target-height="40" target-width="8" target-x="254" target-y="122.405"></path></g><g node-id="248"><g node-id="270"><g node-id="275"><path d="M 113.82 129.11 L 115.33 127.80 C 116.16 127.08 117.43 127.17 118.15 128.00 L 136.52 149.14 C 137.24 149.97 137.16 151.24 136.32 151.96 L 134.81 153.27 C 133.98 154.00 132.71 153.91 131.99 153.07 L 113.62 131.94 C 112.90 131.10 112.99 129.84 113.82 129.11 Z" fill="#b5b9be" fill-rule="nonzero" group-id="8,30,35" node-id="172" stroke="none" target-height="26.921196" target-width="24.347198" target-x="112.897415" target-y="127.07641"></path></g><path d="M 113.07 129.77 L 114.58 128.46 C 115.41 127.73 116.67 127.82 117.40 128.66 L 135.77 149.80 C 136.49 150.63 136.40 151.89 135.57 152.62 L 134.06 153.93 C 133.22 154.65 131.96 154.56 131.24 153.73 L 112.87 132.59 C 112.14 131.76 112.23 130.49 113.07 129.77 Z" fill="#dddfe6" fill-rule="nonzero" group-id="8,30" node-id="175" stroke="none" target-height="26.921196" target-width="24.34719" target-x="112.14242" target-y="127.732414"></path></g><g node-id="271"><path d="M 125.39 137.14 C 126.08 137.60 126.26 138.53 125.80 139.22 C 125.34 139.91 124.40 140.09 123.72 139.63 C 123.03 139.16 122.85 138.23 123.31 137.54 C 123.78 136.86 124.71 136.68 125.39 137.14 Z" fill="#909aa9" fill-rule="nonzero" group-id="8,31" node-id="180" stroke="none" target-height="3.4136047" target-width="3.4136124" target-x="122.84856" target-y="136.67545"></path></g><g node-id="272"><g node-id="276"><path d="M 106.41 133.98 L 108.65 130.67 C 109.27 129.75 110.51 129.51 111.43 130.13 L 141.27 150.26 C 142.19 150.88 142.43 152.12 141.81 153.04 L 139.57 156.35 C 138.96 157.27 137.71 157.51 136.80 156.89 L 106.95 136.76 C 106.04 136.14 105.79 134.90 106.41 133.98 Z" fill="#b5b9be" fill-rule="nonzero" group-id="8,32,36" node-id="187" stroke="none" target-height="27.99858" target-width="36.633614" target-x="105.79493" target-y="129.5114"></path></g><path d="M 105.85 134.81 L 108.09 131.50 C 108.71 130.58 109.95 130.34 110.87 130.96 L 140.71 151.09 C 141.63 151.71 141.87 152.95 141.25 153.87 L 139.01 157.18 C 138.40 158.10 137.15 158.34 136.24 157.72 L 106.39 137.59 C 105.48 136.97 105.24 135.73 105.85 134.81 Z" fill="#cdd3df" fill-rule="nonzero" group-id="8,32" node-id="190" stroke="none" target-height="27.99858" target-width="36.633606" target-x="105.23573" target-y="130.34044"></path></g></g><g node-id="249"><g node-id="273"><path d="M 246.72 290.96 L 293.52 240.77 L 304.67 251.17 L 257.87 301.36 Z" fill="#ffcc43" fill-rule="nonzero" group-id="9,33" node-id="198" stroke="none" target-height="60.584595" target-width="57.95041" target-x="246.71637" target-y="240.77283"></path></g><path d="M 255.52 242.39 L 305.70 289.19 L 295.30 300.34 L 245.12 253.55 Z" fill="#ffcc43" fill-rule="nonzero" group-id="9,34" node-id="203" stroke="none" target-height="57.947662" target-width="60.581665" target-x="245.12122" target-y="242.39395"></path></g><g node-id="250"><path d="M 299.17 221.17 L 292.50 245.00 L 301.33 253.67 L 326.83 247.83 L 355.57 217.60 L 329.42 191.17 Z" fill="#78818e" fill-rule="nonzero" group-id="10" node-id="209" stroke="none" target-height="62.5" target-width="63.070984" target-x="292.5" target-y="191.16699"></path></g><g node-id="251"><path d="M 302.50 222.59 L 296.00 246.43 L 300.29 250.57 L 324.50 245.09 L 349.83 219.50 L 327.67 197.17 Z" fill="#e5e2e2" fill-rule="nonzero" group-id="11" node-id="214" stroke="none" target-height="53.40799" target-width="53.833008" target-x="296" target-y="197.16699"></path></g><g node-id="252"><path d="M 349.86 219.68 L 354.46 215.08 C 356.97 212.54 356.97 208.44 354.46 205.89 L 341.31 192.74 C 338.76 190.23 334.66 190.23 332.12 192.74 L 327.52 197.34 Z M 330.87 205.62 L 341.54 216.29 L 347.38 222.12 L 324.64 244.86 C 319.24 246.02 318.09 243.38 318.80 239.03 C 313.33 238.27 309.25 235.83 308.29 229.59 L 323.64 214.73 L 322.24 213.33 L 306.50 228.60 C 302.54 228.92 301.70 226.36 302.30 222.52 L 325.04 199.78 Z" fill="#909aa9" fill-rule="nonzero" group-id="12" node-id="219" stroke="none" target-height="55.794937" target-width="55.276917" target-x="301.69702" target-y="190.22607"></path></g><g node-id="253"><path d="M 349.86 219.62 L 354.46 215.02 C 356.97 212.47 356.97 208.37 354.46 205.83 L 341.31 192.68 C 338.76 190.16 334.66 190.16 332.12 192.68 L 327.52 197.28 Z" fill="#78818e" fill-rule="nonzero" group-id="13" node-id="224" stroke="none" target-height="29.457916" target-width="29.457947" target-x="327.516" target-y="190.16107"></path></g><g node-id="254"><path d="M 299.00 234.92 L 295.67 246.49 L 300.14 250.97 L 312.50 248.17 Z" fill="#78818e" fill-rule="nonzero" group-id="14" node-id="229" stroke="none" target-height="16.052979" target-width="16.832" target-x="295.668" target-y="234.91699"></path></g><g node-id="255"><path d="M 351.13 222.00 L 356.61 216.65 C 358.05 215.24 358.86 213.31 358.86 211.30 C 358.86 209.28 358.05 207.35 356.61 205.94 L 340.94 190.63 C 337.88 187.70 333.06 187.70 330.00 190.63 L 324.52 195.98 Z" fill="#78818e" fill-rule="nonzero" group-id="15" node-id="234" stroke="none" target-height="34.30565" target-width="34.33783" target-x="324.52002" target-y="187.69537"></path></g><path d="M 348.86 220.55 L 353.46 215.95 C 355.97 213.40 355.97 209.30 353.46 206.76 L 340.31 193.61 C 337.76 191.09 333.66 191.09 331.12 193.61 L 326.52 198.21 Z" fill="#a1a7af" fill-rule="nonzero" group-id="16" node-id="239" stroke="none" target-height="29.457916" target-width="29.457947" target-x="326.516" target-y="191.08911"></path></svg>